<svg width="30" height="24" viewBox="0 0 30 24" fill="none" xmlns="http://www.w3.org/2000/svg">
<path fill-rule="evenodd" clip-rule="evenodd" d="M10.9109 1.01466C10.9109 1.01466 3.62315 8.3043 0.784799 11.1425C0.546786 11.3787 0.428589 11.6894 0.428589 12.0001C0.428589 12.3108 0.546786 12.6214 0.784799 12.8577C3.62153 15.6959 10.9076 22.9823 10.9076 22.9823C11.1424 23.2169 11.4517 23.3334 11.7609 23.3334C12.0702 23.3318 12.3811 23.2137 12.6191 22.9758C13.0935 22.5017 13.0951 21.7363 12.6256 21.2655L4.56872 13.2137H28.3571C29.0274 13.2137 29.5714 12.67 29.5714 12.0001C29.5714 11.3302 29.0274 10.7865 28.3571 10.7865H4.56872L12.6288 2.72987C13.0967 2.26223 13.0935 1.49848 12.6191 1.02437C12.3811 0.786506 12.0702 0.666765 11.7609 0.666765C11.4517 0.665147 11.1457 0.781651 10.9109 1.01466" fill="white"/>
</svg>
