<svg width="30" height="24" viewBox="0 0 30 24" fill="none" xmlns="http://www.w3.org/2000/svg">
<path fill-rule="evenodd" clip-rule="evenodd" d="M19.0891 1.01466C19.0891 1.01466 26.3769 8.3043 29.2152 11.1425C29.4532 11.3787 29.5714 11.6894 29.5714 12.0001C29.5714 12.3108 29.4532 12.6214 29.2152 12.8577C26.3785 15.6959 19.0924 22.9823 19.0924 22.9823C18.8576 23.2169 18.5483 23.3334 18.2391 23.3334C17.9298 23.3318 17.6189 23.2137 17.3809 22.9758C16.9065 22.5017 16.9049 21.7363 17.3744 21.2655L25.4313 13.2137H1.64291C0.972584 13.2137 0.428554 12.67 0.428554 12.0001C0.428554 11.3302 0.972584 10.7865 1.64291 10.7865H25.4313L17.3712 2.72987C16.9033 2.26223 16.9065 1.49848 17.3809 1.02437C17.6189 0.786506 17.9298 0.666765 18.2391 0.666765C18.5483 0.665147 18.8543 0.781651 19.0891 1.01466" fill="white"/>
</svg>
