<svg width="26" height="26" viewBox="0 0 26 26" fill="none" xmlns="http://www.w3.org/2000/svg">
<path fill-rule="evenodd" clip-rule="evenodd" d="M13 11.0296L23.621 0.406714C23.8921 0.135571 24.2506 0 24.6071 0C25.3574 0 26 0.601714 26 1.391C26 1.74943 25.8644 2.106 25.5933 2.379L14.9704 13L25.5914 23.621C25.8644 23.894 26 24.2506 26 24.6071C26 25.4001 25.3519 26 24.6071 26C24.2506 26 23.8921 25.8644 23.621 25.5933L13 14.9723L2.379 25.5933C2.10786 25.8644 1.74943 26 1.39286 26C0.648143 26 0 25.4001 0 24.6071C0 24.2506 0.135571 23.894 0.408571 23.621L11.0296 13L0.406714 2.379C0.135571 2.106 0 1.74943 0 1.391C0 0.601714 0.642572 0 1.39286 0C1.74943 0 2.10786 0.135571 2.379 0.406714L13 11.0296Z" fill="#333333"/>
</svg>
