<svg width="52" height="31" viewBox="0 0 52 31" fill="none" xmlns="http://www.w3.org/2000/svg">
<rect width="52" height="31" rx="8" fill="#FF5454"/>
<path d="M10.665 20.15C9.845 20.15 9.06 20.035 8.31 19.805C7.56 19.565 6.965 19.26 6.525 18.89L7.2 17.375C7.62 17.705 8.14 17.98 8.76 18.2C9.38 18.42 10.015 18.53 10.665 18.53C11.215 18.53 11.66 18.47 12 18.35C12.34 18.23 12.59 18.07 12.75 17.87C12.91 17.66 12.99 17.425 12.99 17.165C12.99 16.845 12.875 16.59 12.645 16.4C12.415 16.2 12.115 16.045 11.745 15.935C11.385 15.815 10.98 15.705 10.53 15.605C10.09 15.505 9.645 15.39 9.195 15.26C8.755 15.12 8.35 14.945 7.98 14.735C7.62 14.515 7.325 14.225 7.095 13.865C6.865 13.505 6.75 13.045 6.75 12.485C6.75 11.915 6.9 11.395 7.2 10.925C7.51 10.445 7.975 10.065 8.595 9.785C9.225 9.495 10.02 9.35 10.98 9.35C11.61 9.35 12.235 9.43 12.855 9.59C13.475 9.75 14.015 9.98 14.475 10.28L13.86 11.795C13.39 11.515 12.905 11.31 12.405 11.18C11.905 11.04 11.425 10.97 10.965 10.97C10.425 10.97 9.985 11.035 9.645 11.165C9.315 11.295 9.07 11.465 8.91 11.675C8.76 11.885 8.685 12.125 8.685 12.395C8.685 12.715 8.795 12.975 9.015 13.175C9.245 13.365 9.54 13.515 9.9 13.625C10.27 13.735 10.68 13.845 11.13 13.955C11.58 14.055 12.025 14.17 12.465 14.3C12.915 14.43 13.32 14.6 13.68 14.81C14.05 15.02 14.345 15.305 14.565 15.665C14.795 16.025 14.91 16.48 14.91 17.03C14.91 17.59 14.755 18.11 14.445 18.59C14.145 19.06 13.68 19.44 13.05 19.73C12.42 20.01 11.625 20.15 10.665 20.15ZM15.3586 20L20.0836 9.5H22.0036L26.7436 20H24.7036L20.6386 10.535H21.4186L17.3686 20H15.3586ZM17.5336 17.57L18.0586 16.04H23.7286L24.2536 17.57H17.5336ZM28.0789 20V9.5H30.0289V18.35H35.5189V20H28.0789ZM38.8584 13.865H44.0784V15.47H38.8584V13.865ZM39.0084 18.365H44.9334V20H37.0584V9.5H44.7234V11.135H39.0084V18.365Z" fill="white"/>
</svg>
